<svg xmlns="http://www.w3.org/2000/svg" width="104" height="111" viewBox="0 0 104 111" fill="none">
<path d="M35.1953 66.6005C35.7422 66.5295 36.38 66.379 36.9797 66.2127C37.1743 65.6959 37.3761 65.268 37.5226 64.9811C36.8554 64.113 36.9614 63.4528 37.3374 62.7539C37.5308 62.3943 37.988 60.8693 38.2768 59.834C36.2052 56.303 36.4344 52.8775 36.5576 51.8885C36.1197 51.2996 34.931 49.6269 34.6149 48.4184C34.1415 46.6083 35.4173 46.0252 35.962 45.7763L36.0147 45.752C36.5298 45.5151 37.6225 44.727 37.9455 44.2409C38.4053 43.5491 39.4851 43.0193 40.3004 42.8019C40.0533 42.1402 39.3837 41.8907 38.5555 41.6882C37.7195 41.4838 37.2854 40.8546 36.5779 39.9581C35.8705 39.0616 35.6294 38.7787 34.6968 38.6528C33.7644 38.527 32.6389 38.4641 31.8833 38.7629C31.1276 39.0616 28.2336 41.4994 26.8028 42.7263C25.3718 43.953 22.6708 45.856 20.7093 48.2624C18.7477 50.6685 16.7381 51.5336 17.1882 54.1444C17.6384 56.7551 19.6159 60.2308 22.7189 62.8731C25.8219 65.5154 28.6517 66.6162 30.9508 66.7264C33.2498 66.8364 33.6196 66.805 35.1953 66.6005Z" fill="#856645"/>
<path d="M71.6005 48.2624C69.639 45.8561 66.938 43.9531 65.507 42.7263C64.0762 41.4996 61.1822 39.0618 60.4264 38.763C59.6709 38.4641 58.5455 38.527 57.6129 38.6528C56.6804 38.7787 56.4392 39.0618 55.7318 39.9583C55.0243 40.8546 54.5903 41.4839 53.7542 41.6882C52.9772 41.8784 52.3394 42.1096 52.0596 42.6845C53.2117 43.1769 54.0841 44.1066 54.3773 44.4474C54.6622 44.7785 54.7746 44.7988 55.1464 44.8662C55.2374 44.8829 55.3344 44.9004 55.4397 44.9234C56.216 45.092 57.1586 45.8992 57.5135 46.3925C58.0951 47.2007 57.6557 47.9986 57.1558 48.7465C56.7284 49.3859 56.0468 50.5497 55.7954 50.9819C55.8333 51.4556 55.9121 52.7322 55.8606 54.6641C55.8058 56.7349 54.8711 58.6609 54.4859 59.3708C54.6253 59.6987 54.858 60.268 55.0724 60.8971C55.2701 61.4774 55.3193 61.9076 55.3153 62.2024C55.7278 62.57 55.9736 62.9402 55.9736 63.4708C55.9736 63.7799 55.8081 64.117 55.6447 64.3748C55.9153 64.9004 56.2634 65.6319 56.5255 66.502C56.7289 66.5424 56.9271 66.5763 57.1145 66.6005C58.6901 66.805 59.0599 66.8364 61.359 66.7264C63.6582 66.6162 66.4879 65.5154 69.5907 62.8731C72.6938 60.231 74.6714 56.7551 75.1215 54.1444C75.5718 51.5336 73.562 50.6687 71.6005 48.2624Z" fill="#856645"/>
<path d="M85.2601 44.8626L85.2223 44.8744C85.1869 44.8848 85.1517 44.8951 85.1141 44.908C85.0626 44.9255 85.0092 44.9453 84.9531 44.9673C84.5539 45.1255 84.1204 45.3172 83.6714 45.5115C83.4955 45.5876 83.3175 45.6642 83.1372 45.7392C82.8203 45.8715 82.499 45.9973 82.1784 46.1103C81.9886 46.1771 81.7996 46.2394 81.6119 46.2939C80.6889 46.5615 79.8026 46.6553 79.0921 46.3227C78.9808 46.2706 78.8831 46.2186 78.795 46.1665L78.7955 46.1659C78.5818 46.0396 78.4317 45.9129 78.3253 45.7854L78.3247 45.7866C77.8755 45.25 78.1959 44.6968 77.7944 44.0783L77.7807 44.0575C77.7571 44.0222 77.7318 43.9868 77.7029 43.951C77.2823 43.4304 76.0688 42.732 75.0626 41.9822L75.0452 41.9694C75.0002 41.9355 74.9556 41.9017 74.9113 41.8676C74.8818 41.845 74.8529 41.8223 74.8238 41.7994C74.7713 41.7584 74.7199 41.7171 74.6692 41.6758C74.6299 41.6436 74.5909 41.6113 74.5528 41.5791C74.5263 41.5564 74.4995 41.5337 74.4736 41.5109C74.4172 41.4617 74.3619 41.4122 74.3094 41.3628C74.2923 41.3468 74.2764 41.331 74.2598 41.315C74.2158 41.2727 74.1734 41.2303 74.1324 41.1877C74.1176 41.1723 74.1024 41.157 74.0883 41.1416C74.0382 41.0881 73.9915 41.0347 73.9473 40.9814L73.9149 40.9405C73.8762 40.8916 73.84 40.8426 73.8067 40.7939L73.7882 40.7674C73.752 40.7121 73.7203 40.657 73.6919 40.602L73.6726 40.5628C73.6456 40.5063 73.6212 40.45 73.6035 40.3938C73.5785 40.3147 73.5539 40.2387 73.5295 40.1655C73.5142 40.1189 73.4989 40.0751 73.4836 40.0307C73.4755 40.0072 73.4674 39.9822 73.4593 39.959H73.4592C73.1166 38.9831 72.8018 38.5324 72.1467 38.056C71.7768 37.7871 71.5824 37.4679 71.4718 37.0905C71.4534 37.026 71.4368 36.9602 71.4227 36.8923C71.416 36.8613 71.4093 36.8303 71.4037 36.7986C71.3897 36.722 71.3781 36.6432 71.3678 36.5623C71.3638 36.5301 71.3594 36.4984 71.3559 36.4655C71.3481 36.394 71.3414 36.3199 71.335 36.245C71.3218 36.0881 71.3113 35.9244 71.2996 35.7523C71.2974 35.7189 71.2878 35.6852 71.2814 35.6515L71.2772 35.6271C71.0666 34.6473 69.2263 33.617 69.0638 32.8047C69.0559 32.7662 69.0388 32.718 69.0177 32.6658V32.6656L69.017 32.6646C69.0021 32.6282 68.9844 32.589 68.9637 32.5468L68.9622 32.5438C68.9415 32.5019 68.9181 32.4571 68.8921 32.4097L68.8898 32.4052C68.8634 32.3575 68.8346 32.3075 68.8034 32.2548L68.8017 32.2517C68.6188 31.9436 68.3573 31.5556 68.0613 31.1313L68.0615 31.1312L68.0503 31.1156C67.7655 30.7073 67.4515 30.2676 67.1471 29.8346V29.8344C66.988 29.608 66.832 29.3838 66.6846 29.1672L66.6682 29.143C66.6251 29.0795 66.5826 29.0167 66.5413 28.9548C66.5315 28.9401 66.5222 28.9259 66.5126 28.9113C66.4759 28.8562 66.4394 28.8012 66.4044 28.7474C66.3918 28.7285 66.38 28.7101 66.3679 28.6912C66.3365 28.6429 66.3053 28.5945 66.2755 28.5478C66.2613 28.5254 66.2484 28.5041 66.2346 28.482C66.2079 28.4396 66.181 28.3969 66.156 28.3557C66.1411 28.3315 66.1277 28.3086 66.1136 28.285C66.0913 28.2479 66.0685 28.2105 66.048 28.1749C66.0329 28.1492 66.0197 28.1252 66.0056 28.1003C65.9874 28.0681 65.9684 28.0352 65.9517 28.0043C65.9381 27.9794 65.9265 27.9564 65.9141 27.9325C65.899 27.9039 65.883 27.8744 65.8695 27.847C65.8572 27.8225 65.8476 27.8003 65.8364 27.7768C65.825 27.7524 65.8126 27.7271 65.8027 27.7041C65.7926 27.6813 65.7853 27.6609 65.7769 27.6395C65.7686 27.6183 65.7588 27.5961 65.752 27.5764C65.7449 27.5559 65.7407 27.5382 65.7352 27.5192C65.7301 27.5013 65.7234 27.4822 65.7195 27.4657C65.7155 27.4477 65.7147 27.4328 65.7125 27.4165C65.7107 27.4022 65.7069 27.3862 65.7065 27.3731C65.7059 27.3573 65.709 27.3449 65.7108 27.3312L65.7141 27.3004C65.7202 27.2795 65.7299 27.2621 65.7436 27.2484C66.1839 26.8081 67.3696 29.0442 67.8101 27.8923C67.8422 27.8082 67.8654 27.7199 67.8842 27.63C67.8898 27.6022 67.8935 27.5739 67.898 27.5456C67.9084 27.4807 67.9164 27.4151 67.9207 27.3481C67.9227 27.318 67.9246 27.288 67.9254 27.2574C67.9271 27.1823 67.9255 27.1071 67.9204 27.0315C67.9193 27.0122 67.9195 26.9933 67.9178 26.974C67.9092 26.8756 67.8955 26.7776 67.8771 26.6803L67.8711 26.6542C67.8534 26.5652 67.8314 26.4779 67.8062 26.3918C67.8014 26.3749 67.7961 26.3586 67.7908 26.3418C67.7647 26.2579 67.736 26.1761 67.704 26.0971L67.6942 26.0725C67.446 25.4737 67.0425 25.0427 66.6922 25.1479C66.0144 25.3513 65.7772 25.3851 64.8288 24.9447C63.8801 24.5043 62.8299 25.8934 61.9152 25.6222C61.5877 25.5254 60.9385 25.4367 60.1969 25.3151L59.5551 25.2037C58.382 24.9866 57.1435 24.6664 56.6299 24.0977C55.6813 23.0475 53.6826 23.9961 53.75 25.0801C53.8179 26.1643 53.4115 26.6726 52.7337 26.3337C52.1737 26.0537 50.6438 25.9804 49.9188 25.3898L49.474 24.7274C48.9872 23.9501 47.7153 24.0505 46.8727 23.8943C45.958 23.725 44.8738 22.878 45.5851 22.2006C46.0464 21.7612 46.2492 21.322 46.1333 20.8917H46.1334L46.1325 20.8894C46.117 20.8324 46.0963 20.7757 46.0694 20.719L46.0683 20.716C45.9852 20.5426 45.8491 20.3709 45.653 20.2016C44.9079 19.558 45.653 19.1318 44.5351 19.3279C44.3021 19.3688 43.9908 19.4025 43.6307 19.4334L43.6301 19.4332C43.2598 19.4654 42.8361 19.4945 42.3809 19.5249L42.3805 19.5251C41.1542 19.6073 39.7115 19.7011 38.5385 19.8966L38.51 19.9022C36.4942 20.2477 35.2463 21.4536 34.0662 21.1503C32.8807 20.8454 32.1352 21.4551 31.6271 20.6759C31.1188 19.8966 30.6444 20.5743 30.2041 21.1163C29.9152 21.4719 29.7397 21.886 29.0913 22.3487H28.9625L29.0823 22.355C28.7429 22.5957 28.2771 22.8494 27.5953 23.1153C26.9462 23.3684 26.6909 23.7326 26.5888 24.1434L26.5885 24.1448C26.3772 24.9986 26.8286 26.0545 25.7997 26.7403C25.6849 26.8168 25.5749 26.8847 25.467 26.9491C24.1428 27.738 23.3178 27.6893 22.3779 28.9424C22.3268 29.0106 22.2786 29.0715 22.2308 29.1315C22.1723 29.2048 22.1161 29.2731 22.062 29.3357C21.4934 29.9962 21.1511 30.1223 20.7177 30.6846L20.7118 30.6927C20.5513 30.9021 20.3782 31.1705 20.1758 31.5511C19.3287 33.1436 18.2784 33.4145 18.3461 34.7018C18.3936 35.6027 18.7349 36.8845 18.6825 38.0841C18.6766 38.2145 18.6651 38.3436 18.6491 38.4716C18.602 38.8484 18.5096 39.2125 18.343 39.5467C17.6009 41.0373 16.9232 41.6473 17.3298 42.3926C17.4204 42.5587 17.4645 42.7631 17.4901 42.9838L17.4911 42.9911C17.5551 43.5536 17.4978 44.2251 17.7387 44.6903L17.7392 44.6912C17.7521 44.7161 17.7652 44.7407 17.7798 44.7643L17.7801 44.7649C17.866 44.9024 17.9814 45.0191 18.143 45.103C19.0579 45.5772 19.7692 46.3904 19.9724 46.9662C20.0673 47.2352 20.101 47.5647 20.1972 47.9148C20.2087 47.9006 20.2204 47.8873 20.2319 47.873C21.7693 45.9871 23.7587 44.3939 25.2113 43.2306C25.6721 42.8616 26.0702 42.5427 26.4019 42.2584C29.2614 39.8068 31.0296 38.4379 31.657 38.1898C32.0961 38.0162 32.636 37.9319 33.308 37.9319C33.7424 37.9319 34.2377 37.9689 34.7798 38.0422C35.9792 38.2038 36.3412 38.6624 37.0624 39.5765L37.2288 39.7881C37.8447 40.5743 38.1645 40.9581 38.7025 41.0897C39.5636 41.3001 40.5128 41.6069 40.8784 42.5867L40.9177 42.6917C41.9174 42.5971 45.0346 42.4714 45.4128 42.4565C45.4327 42.4554 47.8527 42.3428 49.5695 42.3428C50.134 42.3428 50.5726 42.355 50.8728 42.3793C51.0777 42.3959 51.278 42.4318 51.4725 42.4825L51.5055 42.4147C51.9191 41.5651 52.8077 41.2853 53.608 41.0897C54.1461 40.9581 54.466 40.5743 55.0819 39.7881L55.2481 39.5765C55.9694 38.6624 56.3315 38.2038 57.5307 38.0422C58.073 37.9689 58.5681 37.9319 59.0026 37.9319C59.6746 37.9319 60.2146 38.0162 60.6536 38.1898C61.281 38.4379 63.0491 39.8068 65.9086 42.2584C66.2403 42.5427 66.6383 42.8614 67.0991 43.2306C68.5518 44.3937 70.5414 45.9871 72.0787 47.873C72.5964 48.5082 73.1107 49.0249 73.6082 49.5248C74.9508 50.874 76.1105 52.0393 75.7293 54.2494C75.2129 57.2448 72.9603 60.8142 69.9909 63.3428C67.07 65.8298 64.0956 67.2128 61.3888 67.3424C60.4395 67.3879 59.8896 67.4055 59.4278 67.4055C58.5666 67.4055 58.015 67.3393 57.0354 67.212C56.9297 67.1984 56.8171 67.1811 56.6995 67.1611C56.9314 68.1915 57.0093 69.3717 56.7125 70.6132C56.0904 73.2154 54.5165 74.2038 53.8686 74.5081C53.7357 74.5704 53.6038 74.6013 53.4744 74.6013C53.0185 74.6013 52.7362 74.2433 52.6929 73.8895L52.6495 73.537L52.9327 73.3227C53.548 72.8572 54.1893 71.1097 54.0325 69.8096C53.9276 68.9409 53.3476 68.1558 53 67.7546C52.9391 67.7653 52.8774 67.7708 52.8153 67.7708C52.5838 67.7708 52.3652 67.6985 52.1747 67.5654C52.3618 70.1074 52.4716 73.087 52.3221 74.9131C52.0269 78.5226 51.2692 81.4789 50.0058 83.9509C49.8104 84.3331 49.6034 84.6877 49.3887 85.0192C49.5266 85.3547 49.6912 85.6292 49.888 85.8261C49.9741 85.912 50.0778 86.032 50.1927 86.1776H50.1924C50.2533 86.2549 50.3177 86.3395 50.3845 86.4308C50.4895 86.5747 50.6007 86.7349 50.7145 86.9069H50.7134C50.7617 86.9801 50.81 87.0543 50.8591 87.1317H50.8601C51.1703 87.6204 51.4887 88.1839 51.7504 88.7474L51.7488 88.7473C51.7847 88.8248 51.82 88.902 51.8537 88.9791L51.8546 88.9793C51.9443 89.1848 52.0249 89.3888 52.0936 89.5875H52.0923C52.1219 89.6725 52.147 89.7552 52.1717 89.8379L52.1751 89.838C52.2903 90.2238 52.3509 90.5813 52.3338 90.8826H52.3299C52.3282 90.9129 52.3307 90.9463 52.3274 90.9755L52.326 90.9996H52.3263C52.2996 91.2547 52.3234 91.5031 52.3917 91.7348L52.3807 91.7347C52.392 91.7772 52.4045 91.8193 52.4188 91.861L52.437 91.8608C52.5597 92.1859 52.7735 92.47 53.0634 92.6845C53.0625 92.6994 53.0622 92.7144 53.0612 92.7295C53.0987 92.7572 53.1338 92.7865 53.1736 92.812C53.174 92.7968 53.1748 92.7817 53.1753 92.7665C53.4007 92.9093 53.6656 93.0112 53.9629 93.0617H53.9632C54.076 93.0808 54.1939 93.0915 54.3157 93.0951H54.3167C54.4722 93.0995 54.6363 93.0866 54.8055 93.0628C54.8045 93.0785 54.8034 93.0942 54.8027 93.1099C54.8987 93.0965 54.9966 93.0786 55.0966 93.0555C55.0974 93.0398 55.098 93.0241 55.0988 93.0084C55.3042 92.9607 55.5158 92.897 55.7365 92.8052C55.9734 92.7064 56.1985 92.6358 56.4158 92.5816H56.4159C56.4701 92.5681 56.5236 92.5558 56.5767 92.5443C57.1025 92.4332 57.5734 92.4299 58.0046 92.4522C58.0038 92.4675 58.0034 92.4831 58.0024 92.4986C58.0391 92.5003 58.0765 92.5017 58.1126 92.5038C58.1131 92.4882 58.114 92.4728 58.1145 92.4573C58.4191 92.4755 58.7039 92.5005 58.9755 92.503H58.9782C59.293 92.5058 59.5904 92.4767 59.8783 92.3656L59.879 92.3655C59.9027 92.3563 59.9261 92.344 59.9497 92.3338C59.9872 92.3171 60.0245 92.2996 60.0616 92.2799C60.098 92.2609 60.1343 92.241 60.1705 92.219L60.1718 92.2182V92.218C60.2336 92.1803 60.2953 92.1413 60.3567 92.0936C60.9354 91.6433 61.8347 90.7432 62.7106 89.8525C62.7769 89.785 62.8423 89.7182 62.9082 89.6512C62.95 89.6085 62.9919 89.5658 63.0336 89.5234C63.033 89.505 63.0309 89.4869 63.03 89.4685L63.0313 89.469L63.6083 88.9389C64.2261 88.313 64.762 87.7849 65.0659 87.5537L65.0735 87.5475L65.0733 87.547L65.5786 87.0879C66.0792 86.5441 66.335 85.9207 66.3872 85.2161C66.4551 84.3014 66.726 84.0303 67.9456 83.5222C69.1653 83.014 69.504 82.2009 69.2332 80.5069C69.21 80.3629 69.1884 80.2295 69.1676 80.1007H69.1695C69.0921 79.6209 69.0366 79.2423 69.0408 78.9183C69.0414 78.8843 69.0413 78.8497 69.0433 78.8169L69.0462 78.7857C69.088 78.2462 69.3363 77.8593 70.0122 77.3899C70.6171 76.9698 71.7884 76.433 72.8405 75.8127V75.8129L72.844 75.8107C72.9989 75.7194 73.1507 75.6261 73.2985 75.5312L73.3011 75.5295C73.585 75.3466 73.8507 75.1575 74.0833 74.9628L74.0838 74.9625C74.1694 74.8908 74.25 74.8183 74.3257 74.7453L74.3426 74.7287C74.417 74.6561 74.4865 74.5828 74.5496 74.5088L74.5513 74.5068C74.7739 74.2447 74.9217 73.9742 74.9587 73.697C75.1232 72.4635 74.9995 71.1414 75.1257 70.1971L75.1271 70.1843C75.1353 70.1244 75.1453 70.067 75.1557 70.0103L75.1621 69.9724C75.172 69.9208 75.184 69.872 75.1962 69.8234C75.2 69.8082 75.2029 69.7915 75.207 69.7766C75.2239 69.7143 75.2425 69.6545 75.2637 69.5978C75.2836 69.544 75.2983 69.4923 75.31 69.4415C75.314 69.4241 75.3157 69.4073 75.319 69.3901C75.3247 69.3574 75.3303 69.3246 75.333 69.293C75.3345 69.2732 75.3348 69.254 75.3353 69.2347C75.3361 69.2064 75.3362 69.1783 75.3347 69.1505C75.3336 69.1304 75.3319 69.1105 75.3295 69.0908C75.3264 69.0646 75.3224 69.0384 75.3176 69.0125C75.3137 68.9925 75.3098 68.9726 75.3052 68.9527C75.2989 68.9274 75.2913 68.902 75.2836 68.8769C75.2775 68.8571 75.2719 68.8374 75.2648 68.8178C75.2557 68.7926 75.2455 68.7675 75.2352 68.7423C75.2272 68.7227 75.2199 68.7032 75.211 68.6836C75.2018 68.6628 75.1911 68.6416 75.1812 68.6208C74.9633 68.1674 74.5774 67.6775 74.4167 66.8536C74.1458 65.4644 74.823 65.3289 74.3827 64.5497C74.2896 64.3847 74.2648 64.1327 74.2898 63.8323C74.2965 63.7522 74.3064 63.6687 74.3201 63.5822L74.321 63.5769C74.3348 63.4902 74.3519 63.4007 74.3728 63.3083C74.4672 62.8892 74.6283 62.4217 74.8348 61.9581C74.888 61.8392 74.9439 61.7208 75.0023 61.6038L75.0034 61.6018C75.0614 61.4859 75.122 61.3714 75.1846 61.2587C75.4618 60.7619 75.7798 60.3068 76.1105 59.976C76.4064 59.6803 76.8368 59.2342 77.341 58.714C77.4296 58.623 77.5205 58.5293 77.6128 58.434L77.6353 58.411C77.7319 58.3116 77.8304 58.2103 77.9308 58.1074L77.9316 58.1067C78.1364 57.8968 78.3486 57.6805 78.5647 57.4614C79.2552 56.7621 79.9873 56.0371 80.6626 55.4111C80.7077 55.3693 80.7515 55.33 80.7964 55.289L80.7959 55.2882C81.0829 55.0247 81.3584 54.7807 81.6136 54.5673L81.6144 54.5687C81.7327 54.4698 81.8459 54.3783 81.9547 54.2933H81.9517C82.0165 54.2428 82.0799 54.1941 82.1411 54.1488C83.835 52.8953 85.4453 48.8298 85.8 47.4067C85.8061 47.3828 85.8123 47.3584 85.8184 47.3342L85.8188 47.3334C85.8485 47.2159 85.8793 47.0967 85.91 46.9774C86.2259 45.7556 86.5264 44.5109 85.2601 44.8626Z" fill="#8B652D"/>
<path d="M54.2154 53.4104C53.9796 54.2701 53.701 54.6267 52.822 54.6895C52.822 54.6895 52.2218 52.8385 51.7503 52.2647C51.7503 52.2647 52.2647 52.7813 52.5433 53.4943C52.5433 53.4943 53.2509 52.6135 53.5938 52.341C53.9368 52.0683 54.4514 52.5506 54.2154 53.4104ZM39.7969 54.6895C38.918 54.6267 38.6392 54.2701 38.4035 53.4104C38.1677 52.5506 38.6821 52.0683 39.0252 52.341C39.3681 52.6135 40.0756 53.4943 40.0756 53.4943C40.3542 52.7813 40.8688 52.2647 40.8688 52.2647C40.3971 52.8385 39.7969 54.6895 39.7969 54.6895ZM57.0131 46.7524C56.7075 46.3279 55.8876 45.6515 55.3088 45.5257C54.73 45.3998 54.4246 45.4471 53.91 44.8493C53.3955 44.2518 52.1897 43.1037 50.8232 42.9936C49.4565 42.8835 45.437 43.0722 45.437 43.0722C45.437 43.0722 41.4819 43.2296 40.8067 43.3239C40.1314 43.4182 38.8773 43.953 38.4593 44.5821C38.0412 45.2112 36.8193 46.0605 36.2727 46.312C35.7261 46.5637 34.8579 46.9097 35.2115 48.2623C35.5653 49.6148 37.2053 51.7223 37.2053 51.7223C37.2053 51.7223 36.4657 55.7171 38.9416 59.7433C38.9416 59.7433 38.2022 62.4484 37.8805 63.0461C37.5589 63.6438 37.4946 64.0841 38.2663 64.9019C38.2663 64.9019 36.723 67.5128 37.0123 69.8718C37.3018 72.231 38.7809 74.3069 40.9032 74.653C40.9032 74.653 41.096 74.4642 40.7585 74.1733C40.4207 73.8823 39.3516 73.0723 39.014 71.6097C38.6764 70.1471 38.9737 68.535 39.5767 67.67C40.1796 66.8049 40.1636 66.86 40.1636 66.86C40.1636 66.86 40.5172 67.5755 41.0638 67.1902C41.6106 66.8049 42.1974 64.666 42.1974 64.666C42.1974 64.666 42.6475 67.3947 42.7521 68.0946C42.8565 68.7944 44.5689 75.0933 44.4081 77.2008C44.2473 79.3083 43.0897 82.328 41.5463 82.7998C40.0028 83.2715 37.4946 83.2715 36.0154 82.5167C34.5363 81.7618 33.3787 80.0632 33.5395 77.6413C33.5395 77.6413 33.636 76.7499 33.7324 76.6136C33.829 76.4774 34.5255 76.383 34.815 76.0161C35.1045 75.6491 35.1794 75.4079 34.9437 75.2086C34.7078 75.0094 34.5577 75.0409 34.74 74.7055C34.9222 74.3699 34.9973 73.6464 34.1826 73.5625C33.368 73.4786 30.6027 74.2336 29.9167 76.5297C29.2307 78.826 29.6487 80.9754 29.8738 81.9715C30.099 82.9675 31.4387 87.193 34.8043 88.3568C38.1698 89.5207 41.8677 89.248 43.7543 88.6818C45.6407 88.1156 47.9559 86.6059 49.4565 83.6701C50.9571 80.7343 51.493 77.4839 51.7074 74.8627C51.9216 72.2414 51.5787 66.9989 51.2571 64.4406C51.2571 64.4406 52.0396 66.2336 52.2326 66.6739C52.4254 67.1142 52.8113 67.303 53.1544 67.0199C53.1544 67.0199 54.462 68.2258 54.6443 69.7355C54.8265 71.2453 54.1084 73.206 53.3045 73.8141C53.3045 73.8141 53.3366 74.0762 53.6045 73.9505C53.8725 73.8247 55.491 73.0697 56.1127 70.4694C56.7343 67.8692 55.5768 65.5625 54.923 64.3253C54.923 64.3253 55.3571 63.7852 55.3571 63.4707C55.3571 63.1562 55.2285 62.9045 54.6655 62.4642C54.6655 62.4642 54.8104 62.0396 54.4889 61.0958C54.1673 60.1522 53.7975 59.3344 53.7975 59.3344C53.7975 59.3344 55.1801 57.0696 55.2445 54.6477C55.3088 52.2255 55.164 50.8416 55.164 50.8416C55.164 50.8416 56.0965 49.2217 56.6433 48.4038C57.1899 47.5859 57.3186 47.177 57.0131 46.7524Z" fill="#856645"/>
<path d="M31.162 6.76419L29.8661 4.29033L21.3204 8.76711L22.6163 11.2408L25.4649 9.74861L29.6665 17.7698L32.5151 16.2776L28.3133 8.2564L31.162 6.76419Z" fill="#856645"/>
<path d="M43.8018 0.643795L40.6319 1.18527L38.0387 13.6479L41.3755 13.078L41.7175 10.9591L45.8552 10.2523L46.8812 12.1374L50.385 11.5391L43.8018 0.643795ZM44.5602 7.89788L42.141 8.31102L42.7575 4.58267L44.5602 7.89788Z" fill="#856645"/>
<path d="M64.1348 4.1538L64.5372 1.39017L54.9904 -0.000112691L54.588 2.76336L57.7701 3.22684L56.4654 12.1876L59.6476 12.6509L60.9526 3.69032L64.1348 4.1538Z" fill="#856645"/>
<path d="M77.9708 6.64611L75.0904 5.21667L65.6547 13.7599L68.6866 15.2645L70.2113 13.7538L73.971 15.6197L73.6897 17.7474L76.8734 19.3274L77.9708 6.64611ZM74.3112 12.9544L72.1129 11.8634L74.8073 9.21381L74.3112 12.9544Z" fill="#856645"/>
<path d="M11.8019 79.4652L10.6459 77.364L1.2312 78.5816L2.44809 80.7935L4.02466 80.5168L5.5335 83.2595L4.45598 84.4433L5.73362 86.7656L11.8019 79.4652ZM6.87608 81.7719L5.99387 80.1681L8.77148 79.6918L6.87608 81.7719Z" fill="#856645"/>
<path d="M13.576 91.5667L15.1398 90.2885L12.6636 87.2586L13.9343 86.2202L16.5702 89.4458L18.1828 88.1276L14.0292 83.0452L7.1875 88.6366L8.70519 90.4936L11.0998 88.5369L13.576 91.5667Z" fill="#856645"/>
<path d="M13.1218 95.5398L14.938 97.1061L16.7928 94.9554L17.4428 95.516L16.8974 98.7961L19.0002 100.61L19.5102 96.849C20.6702 97.1659 21.7637 96.8256 22.5468 95.9176C23.734 94.541 23.4517 92.781 21.9797 91.5114L18.8924 88.8488L13.1218 95.5398ZM20.441 92.8513C20.9858 93.3212 21.0934 93.9307 20.6483 94.4469C20.1949 94.9727 19.5844 94.9461 19.0395 94.4762L17.9881 93.5693L19.3894 91.9444L20.441 92.8513Z" fill="#856645"/>
<path d="M20.9446 101.8L23.0156 103.13L27.7921 95.6961L25.7211 94.3653L20.9446 101.8Z" fill="#856645"/>
<path d="M32.4206 104.509L32.3098 104.57C31.7674 104.878 31.0059 104.905 30.3282 104.596C29.1107 104.041 28.6846 102.724 29.2289 101.529C29.7785 100.323 31.0586 99.7968 32.2648 100.347C32.8159 100.598 33.3608 101.137 33.4824 101.692C33.4896 101.737 33.5023 101.77 33.5032 101.798L35.7611 101.135L35.7092 100.945C35.4928 99.9587 34.3291 98.8598 33.2149 98.3521C30.7915 97.2479 28.1039 98.2148 27.031 100.569C25.9686 102.901 26.9314 105.476 29.3779 106.591C30.5609 107.13 32.1184 107.243 33.1551 106.703C33.2438 106.66 33.3044 106.618 33.3431 106.594L32.4206 104.509Z" fill="#856645"/>
<path d="M42.192 101.357L39.8577 100.806L34.4502 108.609L36.9073 109.189L37.7589 107.834L40.8058 108.553L40.9618 110.145L43.5417 110.754L42.192 101.357ZM40.6017 106.559L38.8202 106.139L40.3288 103.758L40.6017 106.559Z" fill="#856645"/>
<path d="M56.2359 104.416C56.202 104.102 56.5083 103.879 56.9349 103.833C57.5123 103.771 58.317 104.053 58.7129 104.429L59.9313 102.774L59.5614 102.522C58.9163 102.071 57.657 101.813 56.7033 101.916C54.9211 102.107 53.6334 103.236 53.809 104.868C53.9331 106.022 54.6915 106.817 56.0838 107.251C56.833 107.488 57.3495 107.686 57.6208 107.847C58.0561 108.118 58.2263 108.518 57.8905 108.821C57.3242 109.339 55.7911 108.895 55.0681 108.312L53.8498 109.967L54.0041 110.102C54.8102 110.752 56.2699 111.103 57.4747 110.973C59.2945 110.777 60.6607 109.551 60.4809 107.882C60.3581 106.74 59.4425 105.899 57.7477 105.371C56.9332 105.115 56.29 104.918 56.2359 104.416Z" fill="#856645"/>
<path d="M65.7273 100.146L63.4242 100.815L62.5581 110.269L64.9821 109.564L65.0564 107.965L68.0622 107.091L68.9822 108.401L71.5277 107.661L65.7273 100.146ZM66.9033 105.456L65.1459 105.967L65.2869 103.153L66.9033 105.456Z" fill="#856645"/>
<path d="M77.9259 101.054L77.0193 99.2495L73.5226 101.006L72.786 99.5396L76.5082 97.6698L75.5732 95.8088L69.708 98.7553L73.6744 106.651L75.8175 105.574L74.4292 102.811L77.9259 101.054Z" fill="#856645"/>
<path d="M79.9237 92.6653L77.9921 94.0868L80.4341 103.26L82.4673 101.764L81.9863 100.237L84.5073 98.3818L85.822 99.2949L87.9568 97.7236L79.9237 92.6653ZM82.8563 97.246L81.3825 98.331L80.5458 95.6399L82.8563 97.246Z" fill="#856645"/>
<path d="M89.7023 96.01L91.3275 94.2465L89.2392 92.3217L89.8209 91.6906L93.0811 92.3437L94.963 90.3017L91.2211 89.6683C91.5763 88.5193 91.2722 87.4152 90.3903 86.6024C89.0538 85.3706 87.2852 85.5947 85.9679 87.0243L83.2051 90.0222L89.7023 96.01ZM87.2563 88.6063C87.744 88.0773 88.3566 87.9896 88.8577 88.4515C89.3684 88.9222 89.3218 89.5314 88.8343 90.0604L87.8932 91.0816L86.3153 89.6273L87.2563 88.6063Z" fill="#856645"/>
<path d="M96.2176 88.397L97.616 86.3717L90.3453 81.3517L88.9469 83.3772L96.2176 88.397Z" fill="#856645"/>
<path d="M97.926 33.2079C94.4799 26.2843 89.5275 20.2455 83.497 15.5181C82.8963 15.0473 82.0276 15.1525 81.5568 15.7533C81.0859 16.3539 81.1911 17.2226 81.7917 17.6935C87.5012 22.169 92.1909 27.8879 95.4516 34.4394C98.7125 40.9916 100.546 48.3744 100.546 56.1946C100.546 61.9574 99.5503 67.4819 97.722 72.6123C97.4657 73.3314 97.8407 74.122 98.5597 74.3782C99.2786 74.6344 100.069 74.2593 100.325 73.5404C102.258 68.118 103.31 62.2763 103.31 56.1946C103.311 47.941 101.372 40.1309 97.926 33.2079Z" fill="#856645"/>
<path d="M20.089 15.3037C13.9796 20.0267 8.95838 26.0875 5.46294 33.0502C1.9675 40.0123 -0.000310711 47.8782 3.67983e-08 56.1948C-0.000155337 62.3253 1.06897 68.2121 3.03165 73.6713C3.28988 74.3896 4.08151 74.7625 4.7998 74.5043C5.51794 74.2461 5.89099 73.4546 5.63276 72.7363C3.77605 67.5711 2.7641 62.0039 2.76394 56.1948C2.76425 48.315 4.62578 40.8794 7.93322 34.2903C11.2405 27.7016 15.9954 21.9618 21.7795 17.4904C22.3833 17.0237 22.4944 16.1556 22.0276 15.5518C21.5609 14.9479 20.6928 14.8369 20.089 15.3037Z" fill="#856645"/>
<path d="M94.389 79.022C94.1087 78.8769 94.0915 78.4985 94.2886 78.1174C94.5556 77.6017 95.2345 77.0862 95.7668 76.9636L95.0601 75.0345L94.6455 75.2035C93.9132 75.4927 93.0029 76.4001 92.562 77.252C91.738 78.8439 91.9684 80.5406 93.4257 81.295C94.4569 81.8288 95.5381 81.6351 96.6686 80.7136C97.2796 80.2198 97.7302 79.8986 98.0143 79.7614C98.4801 79.5478 98.908 79.6272 98.9753 80.074C99.0945 80.8323 97.8774 81.8653 96.9931 82.1464L97.6999 84.0757L97.8983 84.0221C98.885 83.7085 99.9832 82.6851 100.54 81.6088C101.381 79.9835 101.113 78.1676 99.6224 77.396C98.6024 76.8679 97.3958 77.1671 96.0195 78.2883C95.357 78.8267 94.8374 79.2541 94.389 79.022Z" fill="#856645"/>
</svg>